<mxfile host="65bd71144e">
    <diagram id="m7DdTD2uF7JsQJq5TwqG" name="Page-1">
        <mxGraphModel dx="2046" dy="1220" grid="1" gridSize="10" guides="1" tooltips="1" connect="1" arrows="1" fold="1" page="0" pageScale="1" pageWidth="1200" pageHeight="1600" math="0" shadow="0">
            <root>
                <mxCell id="0"/>
                <mxCell id="1" parent="0"/>
                <mxCell id="4" value="" style="edgeStyle=none;html=1;fontFamily=Verdana;fontSize=15;" parent="1" source="2" target="3" edge="1">
                    <mxGeometry relative="1" as="geometry"/>
                </mxCell>
                <mxCell id="2" value="&lt;b&gt;&lt;font&gt;Conv&lt;/font&gt;&lt;/b&gt;&lt;div&gt;&lt;font&gt;k=3,s=2,p=1&lt;/font&gt;&lt;/div&gt;" style="rounded=1;whiteSpace=wrap;html=1;fillColor=#dae8fc;strokeColor=#6c8ebf;fontFamily=Verdana;fontSize=15;" parent="1" vertex="1">
                    <mxGeometry x="80" y="80" width="160" height="40" as="geometry"/>
                </mxCell>
                <mxCell id="6" value="" style="edgeStyle=none;html=1;fontFamily=Verdana;fontSize=15;" parent="1" source="3" target="5" edge="1">
                    <mxGeometry relative="1" as="geometry"/>
                </mxCell>
                <mxCell id="3" value="&lt;b&gt;&lt;font&gt;Conv&lt;/font&gt;&lt;/b&gt;&lt;div&gt;&lt;font&gt;k=3,s=2,p=1&lt;/font&gt;&lt;/div&gt;" style="rounded=1;whiteSpace=wrap;html=1;fillColor=#dae8fc;strokeColor=#6c8ebf;fontFamily=Verdana;fontSize=15;" parent="1" vertex="1">
                    <mxGeometry x="80" y="180" width="160" height="40" as="geometry"/>
                </mxCell>
                <mxCell id="8" value="" style="edgeStyle=none;html=1;fontFamily=Verdana;fontSize=15;" parent="1" source="5" target="7" edge="1">
                    <mxGeometry relative="1" as="geometry"/>
                </mxCell>
                <mxCell id="5" value="&lt;b&gt;&lt;font&gt;C2f&lt;/font&gt;&lt;/b&gt;&lt;div&gt;&lt;font style=&quot;font-size: 13px;&quot;&gt;shortcut=True, n=3 x&amp;nbsp;&lt;font style=&quot;color: rgb(0, 0, 204);&quot;&gt;d&lt;/font&gt;&lt;/font&gt;&lt;/div&gt;" style="rounded=1;whiteSpace=wrap;html=1;fillColor=#b0e3e6;strokeColor=#0e8088;align=center;fontFamily=Verdana;fontSize=15;" parent="1" vertex="1">
                    <mxGeometry x="80" y="280" width="160" height="40" as="geometry"/>
                </mxCell>
                <mxCell id="10" value="" style="edgeStyle=none;html=1;fontFamily=Verdana;fontSize=15;" parent="1" source="7" target="9" edge="1">
                    <mxGeometry relative="1" as="geometry"/>
                </mxCell>
                <mxCell id="7" value="&lt;b&gt;Conv&lt;/b&gt;&lt;div&gt;&lt;font&gt;k=3,s=2,p=1&lt;/font&gt;&lt;/div&gt;" style="rounded=1;whiteSpace=wrap;html=1;fillColor=#dae8fc;strokeColor=#6c8ebf;fontFamily=Verdana;fontSize=15;" parent="1" vertex="1">
                    <mxGeometry x="80" y="380" width="160" height="40" as="geometry"/>
                </mxCell>
                <mxCell id="173" value="" style="edgeStyle=none;html=1;" edge="1" parent="1" source="9" target="11">
                    <mxGeometry relative="1" as="geometry"/>
                </mxCell>
                <mxCell id="210" value="" style="edgeStyle=none;html=1;entryX=0;entryY=0.5;entryDx=0;entryDy=0;" edge="1" parent="1" source="9" target="53">
                    <mxGeometry relative="1" as="geometry">
                        <mxPoint x="320" y="500" as="targetPoint"/>
                    </mxGeometry>
                </mxCell>
                <mxCell id="9" value="&lt;b&gt;&lt;font&gt;C2f&lt;/font&gt;&lt;/b&gt;&lt;div&gt;&lt;font style=&quot;font-size: 13px;&quot;&gt;shortcut=True,n= 6 x &lt;font style=&quot;color: rgb(0, 0, 204);&quot;&gt;d&lt;/font&gt;&lt;/font&gt;&lt;/div&gt;" style="rounded=1;whiteSpace=wrap;html=1;fillColor=#b0e3e6;strokeColor=#0e8088;fontFamily=Verdana;fontSize=15;" parent="1" vertex="1">
                    <mxGeometry x="80" y="480" width="160" height="40" as="geometry"/>
                </mxCell>
                <mxCell id="14" value="" style="edgeStyle=none;html=1;fontFamily=Verdana;fontSize=15;" parent="1" source="11" target="13" edge="1">
                    <mxGeometry relative="1" as="geometry"/>
                </mxCell>
                <mxCell id="11" value="&lt;b&gt;&lt;font&gt;Conv&lt;/font&gt;&lt;/b&gt;&lt;div&gt;&lt;font&gt;k=3,s=2,p=1&lt;/font&gt;&lt;/div&gt;" style="rounded=1;whiteSpace=wrap;html=1;fillColor=#dae8fc;strokeColor=#6c8ebf;fontFamily=Verdana;fontSize=15;" parent="1" vertex="1">
                    <mxGeometry x="80" y="560" width="160" height="40" as="geometry"/>
                </mxCell>
                <mxCell id="175" value="" style="edgeStyle=none;html=1;" edge="1" parent="1" source="13" target="174">
                    <mxGeometry relative="1" as="geometry"/>
                </mxCell>
                <mxCell id="13" value="&lt;b&gt;&lt;font&gt;C2f&lt;/font&gt;&lt;/b&gt;&lt;div&gt;&lt;font style=&quot;font-size: 13px;&quot;&gt;shortcut=True,n= 6 x &lt;font style=&quot;color: rgb(0, 0, 204);&quot;&gt;d&lt;/font&gt;&lt;/font&gt;&lt;/div&gt;" style="rounded=1;whiteSpace=wrap;html=1;fillColor=#b0e3e6;strokeColor=#0e8088;fontFamily=Verdana;fontSize=15;" parent="1" vertex="1">
                    <mxGeometry x="80" y="650" width="160" height="40" as="geometry"/>
                </mxCell>
                <mxCell id="161" value="" style="edgeStyle=none;html=1;" edge="1" parent="1" source="15" target="17">
                    <mxGeometry relative="1" as="geometry"/>
                </mxCell>
                <mxCell id="15" value="&lt;b&gt;&lt;font&gt;Conv&lt;/font&gt;&lt;/b&gt;&lt;div&gt;&lt;font&gt;k=3,s=2,p=1&lt;/font&gt;&lt;/div&gt;" style="rounded=1;whiteSpace=wrap;html=1;fillColor=#dae8fc;strokeColor=#6c8ebf;fontFamily=Verdana;fontSize=15;" parent="1" vertex="1">
                    <mxGeometry x="80" y="800" width="160" height="40" as="geometry"/>
                </mxCell>
                <mxCell id="158" value="" style="edgeStyle=none;html=1;" edge="1" parent="1" source="17" target="157">
                    <mxGeometry relative="1" as="geometry"/>
                </mxCell>
                <mxCell id="17" value="&lt;b&gt;&lt;font&gt;C2f&lt;/font&gt;&lt;/b&gt;&lt;div&gt;&lt;span style=&quot;background-color: transparent;&quot;&gt;&lt;font style=&quot;font-size: 13px;&quot;&gt;shortcut=True,n= 3 x&amp;nbsp;&lt;font style=&quot;color: rgb(0, 0, 204);&quot;&gt;d&lt;/font&gt;&lt;/font&gt;&lt;/span&gt;&lt;/div&gt;" style="rounded=1;whiteSpace=wrap;html=1;fillColor=#b0e3e6;strokeColor=#0e8088;fontFamily=Verdana;fontSize=15;" parent="1" vertex="1">
                    <mxGeometry x="80" y="880" width="160" height="40" as="geometry"/>
                </mxCell>
                <mxCell id="181" value="" style="edgeStyle=none;html=1;" edge="1" parent="1" source="19" target="180">
                    <mxGeometry relative="1" as="geometry"/>
                </mxCell>
                <mxCell id="19" value="&lt;b&gt;&lt;font&gt;SPPF&lt;/font&gt;&lt;/b&gt;&lt;div&gt;&lt;font&gt;k = 5&lt;/font&gt;&lt;/div&gt;" style="rounded=1;whiteSpace=wrap;html=1;fillColor=#bac8d3;strokeColor=#23445d;fontFamily=Verdana;fontSize=15;" parent="1" vertex="1">
                    <mxGeometry x="80" y="1040" width="160" height="40" as="geometry"/>
                </mxCell>
                <mxCell id="21" value="" style="endArrow=classic;html=1;entryX=0.5;entryY=0;entryDx=0;entryDy=0;rounded=1;curved=0;verticalAlign=middle;horizontal=1;fontFamily=Verdana;fontSize=15;" parent="1" target="2" edge="1">
                    <mxGeometry width="50" height="50" relative="1" as="geometry">
                        <mxPoint x="160" y="40" as="sourcePoint"/>
                        <mxPoint x="134.72" y="80" as="targetPoint"/>
                    </mxGeometry>
                </mxCell>
                <mxCell id="26" value="Text" style="edgeLabel;html=1;align=center;verticalAlign=middle;resizable=0;points=[];fontFamily=Verdana;fontSize=15;" parent="21" vertex="1" connectable="0">
                    <mxGeometry x="-0.0667" relative="1" as="geometry">
                        <mxPoint as="offset"/>
                    </mxGeometry>
                </mxCell>
                <mxCell id="27" value="640 x 640 x 3" style="edgeLabel;html=1;align=center;verticalAlign=middle;resizable=0;points=[];fontFamily=Verdana;fontSize=15;" parent="21" vertex="1" connectable="0">
                    <mxGeometry x="-0.0667" y="3" relative="1" as="geometry">
                        <mxPoint x="-3" as="offset"/>
                    </mxGeometry>
                </mxCell>
                <mxCell id="28" value="&lt;b&gt;&lt;font&gt;0&lt;/font&gt;&lt;/b&gt;&lt;div&gt;&lt;b&gt;&lt;font&gt;P1&lt;/font&gt;&lt;/b&gt;&lt;/div&gt;" style="text;html=1;align=center;verticalAlign=middle;whiteSpace=wrap;rounded=0;fontFamily=Verdana;fontSize=15;" parent="1" vertex="1">
                    <mxGeometry x="230" y="85" width="60" height="30" as="geometry"/>
                </mxCell>
                <mxCell id="29" value="&lt;font&gt;&lt;b&gt;1&lt;/b&gt;&lt;br&gt;&lt;/font&gt;&lt;div&gt;&lt;b&gt;&lt;font&gt;P2&lt;/font&gt;&lt;/b&gt;&lt;/div&gt;" style="text;html=1;align=center;verticalAlign=middle;whiteSpace=wrap;rounded=0;fontFamily=Verdana;fontSize=15;" parent="1" vertex="1">
                    <mxGeometry x="245" y="185" width="30" height="30" as="geometry"/>
                </mxCell>
                <mxCell id="30" value="&lt;b style=&quot;background-color: transparent;&quot;&gt;&lt;font&gt;2&lt;/font&gt;&lt;/b&gt;" style="text;html=1;align=center;verticalAlign=middle;whiteSpace=wrap;rounded=0;fontFamily=Verdana;fontSize=15;" parent="1" vertex="1">
                    <mxGeometry x="230" y="280" width="60" height="30" as="geometry"/>
                </mxCell>
                <mxCell id="31" value="&lt;font&gt;&lt;b&gt;3&lt;/b&gt;&lt;br&gt;&lt;/font&gt;&lt;div&gt;&lt;b&gt;&lt;font&gt;P3&lt;/font&gt;&lt;/b&gt;&lt;/div&gt;" style="text;html=1;align=center;verticalAlign=middle;whiteSpace=wrap;rounded=0;fontFamily=Verdana;fontSize=15;" parent="1" vertex="1">
                    <mxGeometry x="230" y="385" width="60" height="30" as="geometry"/>
                </mxCell>
                <mxCell id="32" value="&lt;font&gt;&lt;b&gt;4&lt;/b&gt;&lt;/font&gt;" style="text;html=1;align=center;verticalAlign=middle;whiteSpace=wrap;rounded=0;fontFamily=Verdana;fontSize=15;" parent="1" vertex="1">
                    <mxGeometry x="230" y="470" width="60" height="30" as="geometry"/>
                </mxCell>
                <mxCell id="45" value="&lt;font&gt;&lt;b&gt;5&lt;/b&gt;&lt;/font&gt;&lt;div&gt;&lt;font&gt;&lt;b&gt;P4&lt;/b&gt;&lt;/font&gt;&lt;/div&gt;" style="text;html=1;align=center;verticalAlign=middle;whiteSpace=wrap;rounded=0;fontFamily=Verdana;fontSize=15;" parent="1" vertex="1">
                    <mxGeometry x="230" y="565" width="60" height="30" as="geometry"/>
                </mxCell>
                <mxCell id="47" value="&lt;font&gt;&lt;b&gt;7&lt;/b&gt;&lt;/font&gt;" style="text;html=1;align=center;verticalAlign=middle;whiteSpace=wrap;rounded=0;fontFamily=Verdana;fontSize=15;" parent="1" vertex="1">
                    <mxGeometry x="230" y="710" width="60" height="30" as="geometry"/>
                </mxCell>
                <mxCell id="48" value="&lt;b&gt;9&lt;/b&gt;" style="text;html=1;align=center;verticalAlign=middle;whiteSpace=wrap;rounded=0;fontFamily=Verdana;fontSize=15;" parent="1" vertex="1">
                    <mxGeometry x="230" y="885" width="60" height="30" as="geometry"/>
                </mxCell>
                <mxCell id="63" value="" style="edgeStyle=none;html=1;fontFamily=Verdana;fontSize=15;" parent="1" source="53" target="62" edge="1">
                    <mxGeometry relative="1" as="geometry"/>
                </mxCell>
                <mxCell id="53" value="&lt;b&gt;Concat&lt;/b&gt;" style="rounded=1;whiteSpace=wrap;html=1;fillColor=#fff2cc;strokeColor=#d6b656;fontFamily=Verdana;fontSize=15;" parent="1" vertex="1">
                    <mxGeometry x="480" y="480" width="160" height="40" as="geometry"/>
                </mxCell>
                <mxCell id="65" value="" style="edgeStyle=none;html=1;fontFamily=Verdana;fontSize=15;" parent="1" source="58" target="64" edge="1">
                    <mxGeometry relative="1" as="geometry"/>
                </mxCell>
                <mxCell id="58" value="&lt;b&gt;Concat&lt;/b&gt;" style="rounded=1;whiteSpace=wrap;html=1;fillColor=#fff2cc;strokeColor=#d6b656;fontFamily=Verdana;fontSize=15;" parent="1" vertex="1">
                    <mxGeometry x="480" y="720" width="160" height="40" as="geometry"/>
                </mxCell>
                <mxCell id="99" value="" style="edgeStyle=none;html=1;fontFamily=Verdana;fontSize=15;" parent="1" source="62" target="98" edge="1">
                    <mxGeometry relative="1" as="geometry">
                        <Array as="points">
                            <mxPoint x="680" y="400"/>
                        </Array>
                    </mxGeometry>
                </mxCell>
                <mxCell id="62" value="&lt;b&gt;&lt;font&gt;C2f&lt;/font&gt;&lt;/b&gt;&lt;div&gt;&lt;font style=&quot;font-size: 13px;&quot;&gt;shortcut=False,n=3 x &lt;font style=&quot;color: rgb(0, 0, 204);&quot;&gt;d&lt;/font&gt;&lt;/font&gt;&lt;/div&gt;" style="rounded=1;whiteSpace=wrap;html=1;fillColor=#b0e3e6;strokeColor=#0e8088;fontFamily=Verdana;fontSize=15;" parent="1" vertex="1">
                    <mxGeometry x="480" y="380" width="160" height="40" as="geometry"/>
                </mxCell>
                <mxCell id="192" value="" style="edgeStyle=none;html=1;" edge="1" parent="1" source="64" target="191">
                    <mxGeometry relative="1" as="geometry"/>
                </mxCell>
                <mxCell id="64" value="&lt;b&gt;&lt;font&gt;C2f&lt;/font&gt;&lt;/b&gt;&lt;div&gt;&lt;font style=&quot;font-size: 13px;&quot;&gt;shortcut=False,n=3 x&amp;nbsp;&lt;font style=&quot;color: rgb(0, 0, 204);&quot;&gt;d&lt;/font&gt;&lt;/font&gt;&lt;/div&gt;" style="rounded=1;whiteSpace=wrap;html=1;fillColor=#b0e3e6;strokeColor=#0e8088;fontFamily=Verdana;fontSize=15;" parent="1" vertex="1">
                    <mxGeometry x="480" y="660" width="160" height="40" as="geometry"/>
                </mxCell>
                <mxCell id="76" value="" style="edgeStyle=none;html=1;fontFamily=Verdana;fontSize=15;" parent="1" source="74" target="53" edge="1">
                    <mxGeometry relative="1" as="geometry"/>
                </mxCell>
                <mxCell id="74" value="&lt;b&gt;Upsample&lt;/b&gt;" style="rounded=1;whiteSpace=wrap;html=1;fillColor=#e1d5e7;strokeColor=#9673a6;fontFamily=Verdana;fontSize=15;" parent="1" vertex="1">
                    <mxGeometry x="480" y="550.5" width="160" height="25" as="geometry"/>
                </mxCell>
                <mxCell id="78" value="" style="edgeStyle=none;html=1;fontFamily=Verdana;fontSize=15;" parent="1" source="77" target="58" edge="1">
                    <mxGeometry relative="1" as="geometry"/>
                </mxCell>
                <mxCell id="77" value="&lt;b&gt;Upsample&lt;/b&gt;" style="rounded=1;whiteSpace=wrap;html=1;fillColor=#e1d5e7;strokeColor=#9673a6;fontFamily=Verdana;fontSize=15;" parent="1" vertex="1">
                    <mxGeometry x="480" y="835" width="160" height="25" as="geometry"/>
                </mxCell>
                <mxCell id="107" value="" style="edgeStyle=none;html=1;fontFamily=Verdana;fontSize=15;" parent="1" source="80" target="106" edge="1">
                    <mxGeometry relative="1" as="geometry"/>
                </mxCell>
                <mxCell id="80" value="&lt;b&gt;Concat&lt;/b&gt;" style="rounded=1;whiteSpace=wrap;html=1;fillColor=#fff2cc;strokeColor=#d6b656;fontFamily=Verdana;fontSize=15;" parent="1" vertex="1">
                    <mxGeometry x="880" y="960" width="160" height="40" as="geometry"/>
                </mxCell>
                <mxCell id="88" value="&lt;font&gt;&lt;b&gt;16&lt;/b&gt;&lt;/font&gt;" style="text;html=1;align=center;verticalAlign=middle;whiteSpace=wrap;rounded=0;fontFamily=Verdana;fontSize=15;" parent="1" vertex="1">
                    <mxGeometry x="630" y="602.5" width="60" height="30" as="geometry"/>
                </mxCell>
                <mxCell id="103" value="" style="edgeStyle=none;html=1;fontFamily=Verdana;fontSize=15;" parent="1" source="89" target="102" edge="1">
                    <mxGeometry relative="1" as="geometry"/>
                </mxCell>
                <mxCell id="128" value="" style="edgeStyle=none;html=1;fontFamily=Verdana;fontSize=15;" parent="1" source="89" target="127" edge="1">
                    <mxGeometry relative="1" as="geometry"/>
                </mxCell>
                <mxCell id="89" value="&lt;font&gt;&lt;b&gt;C2f&lt;/b&gt;&lt;/font&gt;&lt;div&gt;&lt;font style=&quot;font-size: 13px;&quot;&gt;shortcut=False,n=3 x &lt;font style=&quot;color: rgb(0, 0, 204);&quot;&gt;d&lt;/font&gt;&lt;/font&gt;&lt;/div&gt;" style="rounded=1;whiteSpace=wrap;html=1;fillColor=#b0e3e6;strokeColor=#0e8088;fontFamily=Verdana;fontSize=15;" parent="1" vertex="1">
                    <mxGeometry x="880" y="620" width="160" height="40" as="geometry"/>
                </mxCell>
                <mxCell id="91" value="&lt;font&gt;&lt;b&gt;17&lt;/b&gt;&lt;/font&gt;" style="text;html=1;align=center;verticalAlign=middle;resizable=0;points=[];autosize=1;strokeColor=none;fillColor=none;fontFamily=Verdana;fontSize=15;" parent="1" vertex="1">
                    <mxGeometry x="640" y="548" width="40" height="30" as="geometry"/>
                </mxCell>
                <mxCell id="92" value="&lt;b&gt;&lt;font&gt;6&lt;/font&gt;&lt;/b&gt;" style="text;html=1;align=center;verticalAlign=middle;resizable=0;points=[];autosize=1;strokeColor=none;fillColor=none;fontFamily=Verdana;fontSize=15;" parent="1" vertex="1">
                    <mxGeometry x="245" y="640" width="30" height="30" as="geometry"/>
                </mxCell>
                <mxCell id="93" value="&lt;font&gt;&lt;b&gt;10&lt;/b&gt;&lt;/font&gt;" style="text;html=1;align=center;verticalAlign=middle;resizable=0;points=[];autosize=1;strokeColor=none;fillColor=none;fontFamily=Verdana;fontSize=15;" parent="1" vertex="1">
                    <mxGeometry x="240" y="947.5" width="40" height="30" as="geometry"/>
                </mxCell>
                <mxCell id="97" value="&lt;b&gt;&lt;font&gt;18&lt;/font&gt;&lt;/b&gt;" style="text;html=1;align=center;verticalAlign=middle;resizable=0;points=[];autosize=1;strokeColor=none;fillColor=none;fontFamily=Verdana;fontSize=15;" parent="1" vertex="1">
                    <mxGeometry x="640" y="480" width="40" height="30" as="geometry"/>
                </mxCell>
                <mxCell id="98" value="&lt;b&gt;Detect&lt;/b&gt;" style="rounded=1;whiteSpace=wrap;html=1;fontFamily=Verdana;fontSize=15;fillColor=#2D77FF;strokeColor=#0000CC;" parent="1" vertex="1">
                    <mxGeometry x="1440" y="380" width="160" height="40" as="geometry"/>
                </mxCell>
                <mxCell id="100" value="&lt;b&gt;&lt;font&gt;15&lt;/font&gt;&lt;/b&gt;" style="text;html=1;align=center;verticalAlign=middle;resizable=0;points=[];autosize=1;strokeColor=none;fillColor=none;fontFamily=Verdana;fontSize=15;" parent="1" vertex="1">
                    <mxGeometry x="640" y="660" width="40" height="30" as="geometry"/>
                </mxCell>
                <mxCell id="105" value="" style="edgeStyle=none;html=1;entryX=0.5;entryY=0;entryDx=0;entryDy=0;fontFamily=Verdana;fontSize=15;" parent="1" source="102" target="80" edge="1">
                    <mxGeometry relative="1" as="geometry">
                        <mxPoint x="685" y="860" as="targetPoint"/>
                    </mxGeometry>
                </mxCell>
                <mxCell id="102" value="&lt;b&gt;Conv&lt;/b&gt;&lt;div&gt;k=3,s=2,p=1&lt;/div&gt;" style="rounded=1;whiteSpace=wrap;html=1;fillColor=#dae8fc;strokeColor=#6c8ebf;fontFamily=Verdana;fontSize=15;" parent="1" vertex="1">
                    <mxGeometry x="880" y="735" width="160" height="40" as="geometry"/>
                </mxCell>
                <mxCell id="110" value="" style="edgeStyle=none;html=1;fontFamily=Verdana;fontSize=15;" parent="1" source="106" target="109" edge="1">
                    <mxGeometry relative="1" as="geometry"/>
                </mxCell>
                <mxCell id="106" value="&lt;b&gt;C2f&lt;/b&gt;&lt;div&gt;&lt;font&gt;&lt;font style=&quot;font-size: 13px;&quot;&gt;shortcut=False,n=3x&amp;nbsp;&lt;font style=&quot;color: rgb(0, 0, 204);&quot;&gt;d&lt;/font&gt;&lt;/font&gt;&lt;font style=&quot;font-weight: bold; color: rgb(0, 0, 204);&quot;&gt;&lt;span&gt;&amp;nbsp;&lt;/span&gt;&lt;/font&gt;&lt;/font&gt;&lt;/div&gt;" style="rounded=1;whiteSpace=wrap;html=1;fillColor=#b0e3e6;strokeColor=#0e8088;fontFamily=Verdana;fontSize=15;" parent="1" vertex="1">
                    <mxGeometry x="880" y="1100" width="160" height="40" as="geometry"/>
                </mxCell>
                <mxCell id="109" value="&lt;b&gt;Detect&lt;/b&gt;" style="rounded=1;whiteSpace=wrap;html=1;fillColor=#2D77FF;strokeColor=#0000CC;fontColor=#333333;fontFamily=Verdana;fontSize=15;" parent="1" vertex="1">
                    <mxGeometry x="1440" y="1100" width="160" height="40" as="geometry"/>
                </mxCell>
                <mxCell id="111" value="&lt;font&gt;&lt;b&gt;25&lt;/b&gt;&lt;/font&gt;" style="text;html=1;align=center;verticalAlign=middle;resizable=0;points=[];autosize=1;strokeColor=none;fillColor=none;fontFamily=Verdana;fontSize=15;" parent="1" vertex="1">
                    <mxGeometry x="1035" y="1088" width="40" height="30" as="geometry"/>
                </mxCell>
                <mxCell id="112" value="&lt;font&gt;&lt;b&gt;P5&lt;/b&gt;&lt;/font&gt;" style="text;html=1;align=center;verticalAlign=middle;resizable=0;points=[];autosize=1;strokeColor=none;fillColor=none;fontFamily=Verdana;fontSize=15;" parent="1" vertex="1">
                    <mxGeometry x="1030" y="1118" width="50" height="30" as="geometry"/>
                </mxCell>
                <mxCell id="114" value="" style="endArrow=classic;html=1;entryX=0.5;entryY=0;entryDx=0;entryDy=0;fontFamily=Verdana;fontSize=15;" parent="1" target="116" edge="1">
                    <mxGeometry width="50" height="50" relative="1" as="geometry">
                        <mxPoint x="960" y="400" as="sourcePoint"/>
                        <mxPoint x="684.48" y="476.4799999999999" as="targetPoint"/>
                    </mxGeometry>
                </mxCell>
                <mxCell id="118" value="" style="edgeStyle=none;html=1;fontFamily=Verdana;fontSize=15;" parent="1" source="116" target="117" edge="1">
                    <mxGeometry relative="1" as="geometry"/>
                </mxCell>
                <mxCell id="116" value="&lt;font&gt;&lt;b&gt;Conv&lt;/b&gt;&lt;/font&gt;&lt;div&gt;&lt;font&gt;k=3,s=2,p=1&lt;/font&gt;&lt;/div&gt;" style="rounded=1;whiteSpace=wrap;html=1;fillColor=#dae8fc;strokeColor=#6c8ebf;fontFamily=Verdana;fontSize=15;" parent="1" vertex="1">
                    <mxGeometry x="880" y="455" width="160" height="40" as="geometry"/>
                </mxCell>
                <mxCell id="119" value="" style="edgeStyle=none;html=1;fontFamily=Verdana;fontSize=15;" parent="1" source="117" target="89" edge="1">
                    <mxGeometry relative="1" as="geometry"/>
                </mxCell>
                <mxCell id="117" value="&lt;b&gt;Concat&lt;/b&gt;" style="rounded=1;whiteSpace=wrap;html=1;fillColor=#fff2cc;strokeColor=#d6b656;fontFamily=Verdana;fontSize=15;" parent="1" vertex="1">
                    <mxGeometry x="880" y="548" width="160" height="40" as="geometry"/>
                </mxCell>
                <mxCell id="124" value="&lt;font&gt;&lt;b&gt;24&lt;/b&gt;&lt;/font&gt;" style="text;html=1;align=center;verticalAlign=middle;resizable=0;points=[];autosize=1;strokeColor=none;fillColor=none;fontFamily=Verdana;fontSize=15;" parent="1" vertex="1">
                    <mxGeometry x="1035" y="965" width="40" height="30" as="geometry"/>
                </mxCell>
                <mxCell id="126" value="&lt;font&gt;&lt;b&gt;23&lt;/b&gt;&lt;/font&gt;" style="text;html=1;align=center;verticalAlign=middle;resizable=0;points=[];autosize=1;strokeColor=none;fillColor=none;fontFamily=Verdana;fontSize=15;" parent="1" vertex="1">
                    <mxGeometry x="1035" y="740" width="40" height="30" as="geometry"/>
                </mxCell>
                <mxCell id="127" value="&lt;b&gt;Detect&lt;/b&gt;" style="rounded=1;whiteSpace=wrap;html=1;fillColor=#2D77FF;strokeColor=#0000CC;fontColor=#333333;fontFamily=Verdana;fontSize=15;" parent="1" vertex="1">
                    <mxGeometry x="1440" y="620" width="160" height="40" as="geometry"/>
                </mxCell>
                <mxCell id="129" value="&lt;font&gt;&lt;b&gt;22&lt;/b&gt;&lt;/font&gt;" style="text;html=1;align=center;verticalAlign=middle;resizable=0;points=[];autosize=1;strokeColor=none;fillColor=none;fontFamily=Verdana;fontSize=15;" parent="1" vertex="1">
                    <mxGeometry x="1040" y="610" width="40" height="30" as="geometry"/>
                </mxCell>
                <mxCell id="130" value="&lt;font&gt;&lt;b&gt;P4&lt;/b&gt;&lt;/font&gt;" style="text;html=1;align=center;verticalAlign=middle;resizable=0;points=[];autosize=1;strokeColor=none;fillColor=none;fontFamily=Verdana;fontSize=15;" parent="1" vertex="1">
                    <mxGeometry x="1035" y="640" width="50" height="30" as="geometry"/>
                </mxCell>
                <mxCell id="133" value="&lt;b&gt;&lt;font&gt;21&lt;/font&gt;&lt;/b&gt;" style="text;html=1;align=center;verticalAlign=middle;resizable=0;points=[];autosize=1;strokeColor=none;fillColor=none;fontFamily=Verdana;fontSize=15;" parent="1" vertex="1">
                    <mxGeometry x="1040" y="550.5" width="40" height="30" as="geometry"/>
                </mxCell>
                <mxCell id="134" value="&lt;b&gt;20&lt;/b&gt;&lt;br&gt;&lt;div&gt;&lt;b&gt;&lt;font&gt;P3&lt;/font&gt;&lt;/b&gt;&lt;/div&gt;" style="text;html=1;align=center;verticalAlign=middle;resizable=0;points=[];autosize=1;strokeColor=none;fillColor=none;fontFamily=Verdana;fontSize=15;" parent="1" vertex="1">
                    <mxGeometry x="1035" y="450" width="50" height="50" as="geometry"/>
                </mxCell>
                <mxCell id="140" value="" style="rounded=0;whiteSpace=wrap;html=1;dashed=1;dashPattern=12 12;fillColor=none;fontColor=#ffffff;strokeColor=#3700CC;fontFamily=Verdana;fontSize=15;" parent="1" vertex="1">
                    <mxGeometry x="340" y="348.5" width="1280" height="864.5" as="geometry"/>
                </mxCell>
                <mxCell id="141" value="" style="rounded=0;whiteSpace=wrap;html=1;fillColor=none;fontColor=#ffffff;strokeColor=#2D7600;dashed=1;dashPattern=12 12;fontFamily=Verdana;fontSize=15;" parent="1" vertex="1">
                    <mxGeometry x="-3" y="10" width="326" height="1203" as="geometry"/>
                </mxCell>
                <mxCell id="151" value="&lt;b&gt;&lt;font style=&quot;color: rgb(55, 0, 204);&quot;&gt;Head&lt;/font&gt;&lt;/b&gt;" style="text;html=1;align=center;verticalAlign=middle;resizable=0;points=[];autosize=1;strokeColor=none;fillColor=none;fontFamily=Verdana;fontSize=15;" parent="1" vertex="1">
                    <mxGeometry x="965" y="1183" width="70" height="30" as="geometry"/>
                </mxCell>
                <mxCell id="155" value="&lt;div&gt;&lt;br&gt;&lt;/div&gt;&lt;div&gt;&lt;br&gt;&lt;/div&gt;" style="text;html=1;align=center;verticalAlign=middle;resizable=0;points=[];autosize=1;strokeColor=none;fillColor=none;fontFamily=Verdana;fontSize=15;" parent="1" vertex="1">
                    <mxGeometry x="136" y="1175" width="20" height="50" as="geometry"/>
                </mxCell>
                <mxCell id="156" value="&lt;b&gt;&lt;font style=&quot;color: rgb(45, 118, 0);&quot;&gt;Backbone&lt;/font&gt;&lt;/b&gt;" style="text;html=1;align=center;verticalAlign=middle;resizable=0;points=[];autosize=1;strokeColor=none;fillColor=none;fontFamily=Verdana;fontSize=15;" parent="1" vertex="1">
                    <mxGeometry x="105" y="1183" width="110" height="30" as="geometry"/>
                </mxCell>
                <mxCell id="171" value="" style="edgeStyle=none;html=1;entryX=0.5;entryY=0;entryDx=0;entryDy=0;" edge="1" parent="1" source="157" target="19">
                    <mxGeometry relative="1" as="geometry"/>
                </mxCell>
                <mxCell id="204" value="" style="edgeStyle=none;html=1;entryX=0;entryY=0.5;entryDx=0;entryDy=0;" edge="1" parent="1" source="157" target="80">
                    <mxGeometry relative="1" as="geometry">
                        <mxPoint x="320" y="980" as="targetPoint"/>
                    </mxGeometry>
                </mxCell>
                <mxCell id="157" value="&lt;b&gt;CBAM&lt;/b&gt;" style="rounded=1;whiteSpace=wrap;html=1;fontFamily=Verdana;fontSize=15;fillColor=#f8cecc;strokeColor=#b85450;" vertex="1" parent="1">
                    <mxGeometry x="80" y="960" width="160" height="40" as="geometry"/>
                </mxCell>
                <mxCell id="182" value="" style="edgeStyle=none;html=1;" edge="1" parent="1" source="174" target="15">
                    <mxGeometry relative="1" as="geometry"/>
                </mxCell>
                <mxCell id="215" value="" style="edgeStyle=none;html=1;entryX=0;entryY=0.5;entryDx=0;entryDy=0;" edge="1" parent="1" source="174" target="58">
                    <mxGeometry relative="1" as="geometry">
                        <mxPoint x="320" y="740" as="targetPoint"/>
                    </mxGeometry>
                </mxCell>
                <mxCell id="174" value="&lt;b&gt;SwinBlock&lt;/b&gt;" style="rounded=1;whiteSpace=wrap;html=1;fillColor=#f8cecc;strokeColor=#b85450;fontFamily=Verdana;fontSize=15;" vertex="1" parent="1">
                    <mxGeometry x="80" y="720" width="160" height="40" as="geometry"/>
                </mxCell>
                <mxCell id="208" value="" style="edgeStyle=none;html=1;entryX=0.5;entryY=1;entryDx=0;entryDy=0;" edge="1" parent="1" source="180" target="77">
                    <mxGeometry relative="1" as="geometry">
                        <mxPoint x="320" y="1138" as="targetPoint"/>
                        <Array as="points">
                            <mxPoint x="560" y="1138"/>
                        </Array>
                    </mxGeometry>
                </mxCell>
                <mxCell id="180" value="&lt;b&gt;&lt;font&gt;SPPF&lt;/font&gt;&lt;/b&gt;&lt;div&gt;&lt;font&gt;k = 7&lt;/font&gt;&lt;/div&gt;" style="rounded=1;whiteSpace=wrap;html=1;fillColor=#f8cecc;strokeColor=#b85450;fontFamily=Verdana;fontSize=15;" vertex="1" parent="1">
                    <mxGeometry x="80" y="1118" width="160" height="40" as="geometry"/>
                </mxCell>
                <mxCell id="186" value="&lt;b&gt;8&lt;/b&gt;&lt;br&gt;&lt;div&gt;&lt;font&gt;&lt;b&gt;P5&lt;/b&gt;&lt;/font&gt;&lt;/div&gt;" style="text;html=1;align=center;verticalAlign=middle;whiteSpace=wrap;rounded=0;fontFamily=Verdana;fontSize=15;" vertex="1" parent="1">
                    <mxGeometry x="230" y="805" width="60" height="30" as="geometry"/>
                </mxCell>
                <mxCell id="187" value="&lt;font&gt;&lt;b&gt;11&lt;/b&gt;&lt;/font&gt;" style="text;html=1;align=center;verticalAlign=middle;resizable=0;points=[];autosize=1;strokeColor=none;fillColor=none;fontFamily=Verdana;fontSize=15;" vertex="1" parent="1">
                    <mxGeometry x="245" y="1045" width="40" height="30" as="geometry"/>
                </mxCell>
                <mxCell id="206" value="" style="edgeStyle=none;html=1;" edge="1" parent="1" source="189" target="180">
                    <mxGeometry relative="1" as="geometry"/>
                </mxCell>
                <mxCell id="189" value="&lt;font&gt;&lt;b&gt;12&lt;/b&gt;&lt;/font&gt;" style="text;html=1;align=center;verticalAlign=middle;resizable=0;points=[];autosize=1;strokeColor=none;fillColor=none;fontFamily=Verdana;fontSize=15;" vertex="1" parent="1">
                    <mxGeometry x="240" y="1110" width="40" height="30" as="geometry"/>
                </mxCell>
                <mxCell id="193" value="" style="edgeStyle=none;html=1;" edge="1" parent="1" source="191" target="74">
                    <mxGeometry relative="1" as="geometry"/>
                </mxCell>
                <mxCell id="191" value="&lt;b&gt;SwinBlock&lt;/b&gt;" style="rounded=1;whiteSpace=wrap;html=1;fillColor=#f8cecc;strokeColor=#b85450;fontFamily=Verdana;fontSize=15;" vertex="1" parent="1">
                    <mxGeometry x="480" y="597.5" width="160" height="40" as="geometry"/>
                </mxCell>
                <mxCell id="197" value="&lt;font&gt;&lt;b&gt;13&lt;/b&gt;&lt;/font&gt;" style="text;html=1;align=center;verticalAlign=middle;resizable=0;points=[];autosize=1;strokeColor=none;fillColor=none;fontFamily=Verdana;fontSize=15;" vertex="1" parent="1">
                    <mxGeometry x="640" y="835" width="40" height="30" as="geometry"/>
                </mxCell>
                <mxCell id="198" value="&lt;font&gt;&lt;b&gt;14&lt;/b&gt;&lt;/font&gt;" style="text;html=1;align=center;verticalAlign=middle;resizable=0;points=[];autosize=1;strokeColor=none;fillColor=none;fontFamily=Verdana;fontSize=15;" vertex="1" parent="1">
                    <mxGeometry x="640" y="725" width="40" height="30" as="geometry"/>
                </mxCell>
                <mxCell id="200" value="&lt;b&gt;&lt;font&gt;19&lt;/font&gt;&lt;/b&gt;" style="text;html=1;align=center;verticalAlign=middle;resizable=0;points=[];autosize=1;strokeColor=none;fillColor=none;fontFamily=Verdana;fontSize=15;" vertex="1" parent="1">
                    <mxGeometry x="640" y="370" width="40" height="30" as="geometry"/>
                </mxCell>
                <mxCell id="216" value="&lt;b&gt;&lt;font face=&quot;Verdana&quot;&gt;P3&lt;/font&gt;&lt;/b&gt;" style="text;html=1;align=center;verticalAlign=middle;resizable=0;points=[];autosize=1;strokeColor=none;fillColor=none;fontFamily=Verdana;fontSize=15;" vertex="1" parent="1">
                    <mxGeometry x="635" y="400" width="50" height="30" as="geometry"/>
                </mxCell>
            </root>
        </mxGraphModel>
    </diagram>
    <diagram id="BCsiZsydA4IPmQJmRhY2" name="Page-2">
        <mxGraphModel dx="576" dy="427" grid="0" gridSize="10" guides="1" tooltips="1" connect="1" arrows="1" fold="1" page="1" pageScale="1" pageWidth="1200" pageHeight="1600" math="0" shadow="0">
            <root>
                <mxCell id="0"/>
                <mxCell id="1" parent="0"/>
            </root>
        </mxGraphModel>
    </diagram>
</mxfile>